<svg xmlns="http://www.w3.org/2000/svg" width="314.687" height="336.719" viewBox="0 0 314.687 336.719">
  <metadata><?xpacket begin="﻿" id="W5M0MpCehiHzreSzNTczkc9d"?>
<x:xmpmeta xmlns:x="adobe:ns:meta/" x:xmptk="Adobe XMP Core 5.6-c142 79.160924, 2017/07/13-01:06:39        ">
   <rdf:RDF xmlns:rdf="http://www.w3.org/1999/02/22-rdf-syntax-ns#">
      <rdf:Description rdf:about=""/>
   </rdf:RDF>
</x:xmpmeta>
                                                                                                                                                                                                      
                           
<?xpacket end="w"?></metadata>
<defs>
    <style>
      .cls-1 {
        fill: #fff200;
        fill-rule: evenodd;
      }
    </style>
  </defs>
  <path class="cls-1" d="M314.872,143.78c-1.138-52.947-25.409-96.224-57.775-69.82,20.769,61.538-17.674,27.388-29.019,37-10.437,8.845-23.455,9.983-35.643,9.927-24.677-.116-53.369-13.727-60.776,28.84-5.046,28.984,4.673,67.681,16.981,75.373s-48.647-17.857-14.8,20.6-24.582,25.122-35.013,44.321c56.923,35.384-20.918,52.663-14.089,75.285,63.846-17.692,35.1,47.549,58.075,36.045,27.566-13.794,37.935-65.4,55.627-58.481,68.462-6.154,33.765,14.725,43.472,37.3,18.308,42.59,72.712-7.536,78.1,4s63.66,10.106,18.688-55.59c0,0-12.139.586-23.678-31.722-44.615-75.385,16.8-45.04,38.569-57.213,20.805-11.629,54.348-35.55,43.268-78.7-3.8-14.807-30.311-28.057-40.993-22.9C375.093,202.67,315.31,164.258,314.872,143.78Z" transform="translate(-84.344 -66)"/>
</svg>
