<svg xmlns="http://www.w3.org/2000/svg" width="318" height="346" viewBox="0 0 318 346">
  <metadata><?xpacket begin="﻿" id="W5M0MpCehiHzreSzNTczkc9d"?>
<x:xmpmeta xmlns:x="adobe:ns:meta/" x:xmptk="Adobe XMP Core 5.6-c142 79.160924, 2017/07/13-01:06:39        ">
   <rdf:RDF xmlns:rdf="http://www.w3.org/1999/02/22-rdf-syntax-ns#">
      <rdf:Description rdf:about=""/>
   </rdf:RDF>
</x:xmpmeta>
                                                                                                    
                                                                                                    
                                                                                                    
                                                                                                    
                                                                                                    
                                                                                                    
                                                                                                    
                                                                                                    
                                                                                                    
                                                                                                    
                                                                                                    
                                                                                                    
                                                                                                    
                                                                                                    
                                                                                                    
                                                                                                    
                                                                                                    
                                                                                                    
                                                                                                    
                                                                                                    
                           
<?xpacket end="w"?></metadata>
<defs>
    <style>
      .cls-1 {
        fill: #fff200;
        fill-rule: evenodd;
      }
    </style>
  </defs>
  <path class="cls-1" d="M314.872,143.78c-1.138-52.947-25.409-96.224-57.775-69.82-11.452,9.341-17.674,27.388-29.019,37-10.437,8.845-23.455,9.983-35.643,9.927-24.677-.116-53.369-13.727-60.776,28.84-5.046,28.984,24.1,47.467,16.981,75.373-2.221,8.717-9.128,15.165-14.8,20.6-14.091,13.511-24.582,25.122-35.013,44.321C79.3,325.95,77.909,342.687,84.738,365.309c7.406,24.527,35.1,47.549,58.075,36.045,27.566-13.794,24.956-43.238,55.627-58.481,25.884-12.872,33.765,14.725,43.472,37.3,18.308,42.59,53.875,40.964,78.1,4,7.89-12.043,21.353-38.356,18.688-55.59-2.152-13.91-16.653-22.3-23.678-31.722-24.71-33.134,16.8-45.04,38.569-57.213,20.805-11.629,54.348-35.55,43.268-78.7-3.8-14.807-30.311-28.057-40.993-22.9C340.751,145.362,315.31,164.258,314.872,143.78Z" transform="translate(-81.031 -66)"/>
</svg>
