<?xml version="1.0" encoding="utf-8"?>
<!-- Generator: Adobe Illustrator 16.0.0, SVG Export Plug-In . SVG Version: 6.00 Build 0)  -->
<!DOCTYPE svg PUBLIC "-//W3C//DTD SVG 1.1//EN" "http://www.w3.org/Graphics/SVG/1.1/DTD/svg11.dtd">
<svg version="1.1" id="Calque_1" xmlns="http://www.w3.org/2000/svg" xmlns:xlink="http://www.w3.org/1999/xlink" x="0px" y="0px"
	 width="432px" height="432px" viewBox="0 0 432 432" enable-background="new 0 0 432 432" xml:space="preserve">
<g>
	<g>
		<g>
			<path d="M176.92,125.181c-2.16-1.525-4.191-2.54-5.842-2.922c-2.159-0.634-4.189-1.016-5.968-1.27
				c-2.92-0.508-4.317-1.144-4.317-1.777c0-0.381,0.508-0.889,1.651-1.396s3.302-2.159,6.222-4.953s5.333-5.841,7.112-9.143
				c1.651-3.174,2.539-6.222,2.539-9.143c0-2.158-0.508-3.938-1.523-5.46c-2.54-3.684-6.604-6.604-12.063-8.763
				c-3.684-1.397-9.398-2.031-17.144-2.031c-4.571,0-7.873,0.254-10.032,0.888c-2.794,0.89-5.588,1.905-8.508,3.176
				c-3.048,1.396-4.698,2.92-5.079,4.317c-0.254,1.27-0.508,11.937-0.889,31.873c-0.126,3.682-0.126,8.508-0.126,14.73
				c0,18.793,0.762,28.824,2.413,30.095c1.016,0.762,3.428,1.396,7.238,2.031c3.81,0.636,7.619,0.89,11.301,0.89
				c2.921,0,4.953-0.128,6.35-0.508c3.174-0.763,8.889-3.176,16.889-7.111c5.459-2.667,9.65-5.969,12.699-9.652
				c2.92-3.682,4.443-7.363,4.443-11.173c0-2.667-0.762-5.207-2.413-7.619C180.729,128.48,179.079,126.831,176.92,125.181z
				 M138.57,103.974c0.127-12.064,0.381-18.159,0.762-18.54c0.889-0.888,3.302-1.397,7.111-1.397c2.667,0,4.953,0.256,6.857,0.764
				c2.667,0.888,4.698,2.03,6.222,3.556c1.144,1.016,1.905,1.777,2.285,2.412c0.381,0.634,0.508,1.396,0.508,2.413v1.016
				c-0.126,0.507-0.126,0.889-0.126,1.269c-0.381,5.207-2.794,10.286-7.491,15.238c-1.905,2.159-4.699,4.445-8.255,7.112
				c-3.682,2.666-5.968,4.063-6.857,4.063c-0.634,0-1.016-3.302-1.016-9.906V103.974z M164.348,147.148
				c-2.159,3.429-4.825,6.095-8,8.254c-2.667,1.65-5.587,3.048-8.889,4.19c-3.302,1.142-6.095,1.651-8.507,1.651
				c-1.905,0-3.048-0.382-3.683-1.018c-0.38-0.38-0.508-1.015-0.508-2.03c0-0.762,0.127-1.905,0.381-3.556
				c0.634-4.191,1.143-9.143,1.523-14.857c0.635-6.857,1.016-10.413,1.27-10.667c0.127-0.126,0.889-0.508,2.54-0.89
				c1.523-0.38,3.174-0.634,4.825-1.016c1.651-0.254,2.54-0.38,2.667-0.508c1.397-0.253,3.048-0.381,4.953-0.381
				c4.063,0,6.857,0.381,8.381,1.143c1.651,0.89,3.048,2.287,4.445,4.445c1.27,2.159,1.905,4.063,1.905,5.969
				C167.65,140.799,166.507,143.847,164.348,147.148z"/>
			<path d="M217.938,127.593c14.223-0.508,21.333-3.684,21.333-9.397c0-1.142-0.38-2.793-1.27-4.697
				c-0.762-1.651-2.413-3.556-4.825-5.843c-2.54-2.284-4.825-3.81-6.73-4.697c-2.666-1.143-6.476-1.778-11.429-1.778
				c-1.778,0-3.048,0.128-3.683,0.254c-4.063,0.889-8.127,3.302-12.063,7.493c-5.968,6.476-9.016,13.968-9.016,22.603
				c0,4.952,1.143,9.651,3.302,14.349c2.54,5.461,6.35,9.397,11.429,11.937c2.92,1.397,6.222,2.159,10.032,2.159
				c4.19,0,7.619-0.762,10.032-2.285c2.413-1.524,5.841-4.953,10.032-10.286c1.523-1.904,2.285-3.302,2.285-4.19
				c0-1.016-1.016-1.523-2.92-1.523c-1.143,0-2.159,0.38-3.174,1.016c-1.016,0.761-2.92,2.54-5.714,5.46
				c-4.191,4.443-6.857,6.73-7.999,6.984c-0.128,0.127-0.509,0.127-0.89,0.127c-1.778,0-3.556-1.143-5.207-3.429
				c-1.777-2.159-3.174-5.079-4.063-8.508c-0.762-2.794-1.143-5.968-1.143-9.523c0-2.921,0.254-4.699,0.889-5.207
				C207.652,128.101,211.208,127.719,217.938,127.593z M211.081,116.544c1.143-2.158,2.413-4.189,4.063-5.967
				c1.524-1.65,2.668-2.54,3.556-2.54c0.508,0,1.778,0.762,3.683,2.159c1.651,1.396,2.92,3.048,3.936,5.206
				c0.635,1.397,0.889,2.413,0.889,3.047c0,1.143-0.762,2.032-2.413,2.54c-1.651,0.636-4.699,1.016-9.142,1.397l-3.938,0.254
				c-1.651,0-2.54-0.382-2.54-1.27C209.176,120.481,209.811,118.958,211.081,116.544z"/>
			<path d="M265.686,97.244c-1.905,0-3.682,0.254-5.333,0.634c-3.048,0.635-5.586,2.158-7.491,4.572
				c-1.905,2.413-3.176,5.333-3.556,8.761c-0.128,0.382-0.128,1.144-0.128,2.033c0,3.428,2.033,7.873,6.096,13.078
				c5.968,7.619,9.27,14.095,9.65,19.302c0,0.128,0,0.382,0.127,0.762v0.763c0,3.809-1.271,5.841-3.938,6.095h-0.508
				c-2.031,0-3.81-1.016-5.333-3.048c-1.651-1.904-2.413-4.189-2.413-6.603v-0.635c0-0.254,0-0.636,0.126-1.016
				c0-0.382,0-0.508,0-0.636v-0.89c-0.126-0.126-0.254-0.254-0.508-0.38c-0.38-0.128-0.635-0.128-0.761-0.254
				c-0.128,0-0.636,0-1.27-0.128c-0.127,0-0.381,0-0.635-0.126h-0.636c-1.015,0-1.777,0.508-2.413,1.523
				c-1.143,1.651-1.651,3.556-1.651,5.461c0,3.682,1.779,6.729,5.46,9.396c1.397,1.015,2.667,1.65,3.684,1.778
				c0.888,0.254,2.792,0.38,5.713,0.38c7.365,0,12.444-2.031,15.238-6.222c1.397-2.413,2.159-4.825,2.159-7.238
				c0-4.825-2.666-11.301-8.127-19.302c-2.666-3.81-4.317-6.349-4.953-7.619c-0.634-1.144-0.888-2.539-0.888-4.063v-1.523
				c0.126-5.206,1.143-7.745,2.792-7.745c0.636,0,1.651,0.888,3.302,2.666c1.525,1.905,2.287,3.682,2.287,5.333
				c0,3.81,1.27,5.715,3.936,5.715c0.508,0,0.89,0,1.144-0.128c2.92-0.634,4.445-3.556,4.445-8.761c0-2.159-0.889-4.191-2.794-6.223
				C275.083,99.148,270.893,97.244,265.686,97.244z"/>
			<path d="M328.544,100.672l-0.761-0.762c-0.89-0.89-3.302-1.397-7.239-1.397c-4.063,0-6.348-0.254-6.856-0.761
				c-0.636-0.636-0.89-2.159-0.89-4.571c0-2.159-0.254-3.81-0.762-4.825c-0.507-0.89-1.524-1.651-2.92-2.159
				c-1.397-0.509-2.541-0.763-3.302-0.763c-1.015,0-2.286,0.381-3.937,1.271c-1.396,0.634-2.285,1.523-2.667,2.921
				c-0.508,1.396-0.762,3.682-0.888,6.857c-0.128,1.649-0.509,2.666-1.271,3.3c-0.889,0.636-2.285,1.018-4.317,1.018
				c-1.651,0-2.92,0.254-3.936,0.762c-1.017,0.508-1.525,1.143-1.525,1.904c0,0.634,0.381,1.27,1.017,1.651
				c0.888,0.634,2.539,1.142,5.205,1.396l4.317,0.508l0.889,24.508c0.508,14.349,1.016,22.857,1.651,25.27
				c0.636,2.54,2.287,3.81,5.207,3.81c1.651,0,2.666-0.128,3.174-0.382c0.382-0.126,0.89-0.761,1.523-1.904
				c1.143-2.412,2.159-14.857,3.048-37.587c0.382-9.524,0.762-14.477,1.397-14.856c0.762-0.636,2.667-1.016,5.587-1.27
				c3.302-0.51,5.588-1.144,6.731-1.905l1.142-0.763c0.127-0.126,0.254-0.38,0.381-0.634
				C328.67,101.18,328.67,100.926,328.544,100.672z"/>
		</g>
		<g>
			<path fill="#FF7A7A" d="M167.085,186.19c-3.938-3.302-19.048-16-46.35-11.429c-2.54,0.382-4.953,1.524-7.493,2.54
				c-1.27,0.508-1.396,7.619,2.668,5.461c1.777-0.636,1.523-0.382,3.81-1.271c-3.938,20.19-5.334,73.523-2.794,87.237
				c0.38,3.302,4.317,7.111,10.54,6.73C182.45,279.143,212.925,223.905,167.085,186.19z M133.688,259.969
				c-2.413-16.382-1.397-64.508,1.27-80C192.863,187.588,182.45,259.461,133.688,259.969z"/>
			<path fill="#FF7A7A" d="M237.311,193.556c-0.254-3.937-1.397-7.111-4.827-8.889c-2.031-1.017-2.031-2.032-1.142-3.937
				c1.396-2.921,1.523-5.841-0.889-8.508c-3.174-3.683-10.921-2.158-13.587,1.651c-1.144,1.649-14.35,38.856-22.858,80.507
				c0,0-11.809,8.127-0.888,8.127c-0.254,2.032-0.762,9.397-0.89,11.303c-0.508,9.015,10.16,15.236,12.064,5.968
				c0.888-6.096,2.159-11.811,2.792-17.905c0.382-2.412,1.27-3.302,3.43-3.555c8-1.271,16.126-1.905,24.381-0.89
				c2.792,0.254,4.444,1.27,5.333,4.063c1.651,5.841,4.699,10.539,10.412,13.079c2.033,1.016,8.001,2.667,5.842-3.683
				C252.547,263.271,238.706,219.588,237.311,193.556z M209.5,249.938c3.684-18.921,6.35-29.97,14.223-53.207
				c3.556,18.794,8.889,34.54,12.444,52.953C227.151,247.904,219.278,248.54,209.5,249.938z"/>
			<path fill="#FF7A7A" d="M316.806,186.19c-3.937-3.302-19.048-16-46.349-11.429c-2.54,0.382-4.953,1.524-7.493,2.54
				c-1.269,0.508-1.396,7.619,2.668,5.461c1.777-0.636,1.523-0.382,3.81-1.271c-3.937,20.19-5.334,73.523-2.794,87.237
				c0.38,3.302,4.317,7.111,10.54,6.73C332.17,279.143,362.646,223.905,316.806,186.19z M283.409,259.969
				c-2.413-16.382-1.397-64.508,1.27-80C342.584,187.588,332.17,259.461,283.409,259.969z"/>
		</g>
		<g>
			<path d="M149.475,321.296c14.223-0.508,21.333-3.684,21.333-9.397c0-1.142-0.38-2.793-1.269-4.697
				c-0.762-1.651-2.413-3.557-4.825-5.843c-2.541-2.284-4.825-3.81-6.73-4.697c-2.667-1.143-6.476-1.778-11.429-1.778
				c-1.779,0-3.048,0.128-3.684,0.254c-4.063,0.889-8.127,3.302-12.063,7.493c-5.968,6.476-9.017,13.967-9.017,22.603
				c0,4.952,1.143,9.651,3.302,14.349c2.54,5.46,6.35,9.397,11.429,11.937c2.92,1.397,6.222,2.159,10.032,2.159
				c4.189,0,7.619-0.762,10.032-2.285c2.413-1.524,5.84-4.953,10.032-10.286c1.523-1.904,2.285-3.302,2.285-4.19
				c0-1.016-1.015-1.523-2.92-1.523c-1.144,0-2.159,0.38-3.174,1.016c-1.016,0.761-2.92,2.54-5.714,5.46
				c-4.191,4.443-6.858,6.73-8.001,6.984c-0.126,0.127-0.508,0.127-0.888,0.127c-1.779,0-3.556-1.143-5.207-3.43
				c-1.777-2.158-3.174-5.078-4.063-8.507c-0.762-2.794-1.144-5.968-1.144-9.523c0-2.921,0.254-4.699,0.89-5.207
				C139.189,321.804,142.745,321.422,149.475,321.296z M142.617,310.249c1.144-2.16,2.414-4.191,4.063-5.969
				c1.525-1.65,2.668-2.54,3.556-2.54c0.508,0,1.779,0.762,3.684,2.158c1.651,1.397,2.92,3.049,3.936,5.207
				c0.636,1.397,0.89,2.413,0.89,3.047c0,1.143-0.762,2.032-2.413,2.54c-1.651,0.636-4.699,1.016-9.143,1.397l-3.937,0.254
				c-1.651,0-2.541-0.382-2.541-1.27C140.712,314.185,141.348,312.661,142.617,310.249z"/>
			<path d="M224.016,294.375c-2.667,0-5.206,2.286-7.873,6.857c-1.903,3.682-5.713,14.857-11.427,33.27
				c-0.128,0.382-0.382,0.636-0.508,0.636c-0.636,0-1.397-1.905-2.414-5.589c-1.396-4.951-3.301-11.301-5.967-19.046
				c-2.667-7.619-4.699-12.7-5.968-15.112c-0.89-1.905-1.779-3.047-2.668-3.429c-0.762-0.253-1.777-0.381-2.92-0.381
				c-2.413,0-4.317,0.381-5.714,1.143c-0.888,0.508-1.397,0.89-1.523,1.144c-0.254,0.382-0.381,0.89-0.381,1.777
				c0,1.017,0,1.904,0.127,2.668c0.38,3.3,1.523,7.617,3.428,13.078c1.905,5.46,6.35,17.144,13.333,34.92
				c1.143,3.303,2.159,5.461,2.92,6.351c0.381,0.635,2.032,1.016,4.825,1.016c2.54,0,4.445-0.635,5.588-1.905
				c2.031-2.158,6.349-12.57,12.825-31.365c1.779-5.332,3.302-9.903,4.699-13.587c1.523-3.936,2.287-7.111,2.287-9.524
				c0-0.888-0.128-1.396-0.382-1.776C225.667,294.757,224.905,294.375,224.016,294.375z"/>
			<path d="M260.336,321.296c14.223-0.508,21.333-3.684,21.333-9.397c0-1.142-0.38-2.793-1.27-4.697
				c-0.762-1.651-2.413-3.557-4.825-5.843c-2.54-2.284-4.825-3.81-6.73-4.697c-2.667-1.143-6.476-1.778-11.429-1.778
				c-1.778,0-3.048,0.128-3.683,0.254c-4.064,0.889-8.127,3.302-12.063,7.493c-5.968,6.476-9.016,13.967-9.016,22.603
				c0,4.952,1.143,9.651,3.302,14.349c2.54,5.46,6.35,9.397,11.429,11.937c2.92,1.397,6.222,2.159,10.032,2.159
				c4.19,0,7.619-0.762,10.032-2.285c2.413-1.524,5.841-4.953,10.032-10.286c1.523-1.904,2.285-3.302,2.285-4.19
				c0-1.016-1.016-1.523-2.92-1.523c-1.143,0-2.159,0.38-3.174,1.016c-1.016,0.761-2.92,2.54-5.714,5.46
				c-4.191,4.443-6.857,6.73-8,6.984c-0.127,0.127-0.509,0.127-0.889,0.127c-1.778,0-3.556-1.143-5.207-3.43
				c-1.777-2.158-3.174-5.078-4.063-8.507c-0.762-2.794-1.143-5.968-1.143-9.523c0-2.921,0.254-4.699,0.889-5.207
				C250.051,321.804,253.606,321.422,260.336,321.296z M253.479,310.249c1.143-2.16,2.413-4.191,4.063-5.969
				c1.524-1.65,2.667-2.54,3.556-2.54c0.508,0,1.778,0.762,3.683,2.158c1.651,1.397,2.92,3.049,3.936,5.207
				c0.635,1.397,0.889,2.413,0.889,3.047c0,1.143-0.762,2.032-2.413,2.54c-1.651,0.636-4.699,1.016-9.143,1.397l-3.937,0.254
				c-1.651,0-2.54-0.382-2.54-1.27C251.574,314.185,252.209,312.661,253.479,310.249z"/>
			<path d="M323.704,298.82c-1.144-0.382-2.413-0.508-3.938-0.508c-5.968,0-10.412,2.792-13.333,8.381
				c-0.38,0.634-0.634,0.888-0.762,0.888c-0.508,0-1.015-1.777-1.523-5.205c-0.762-4.827-2.667-7.239-5.588-7.239
				c-1.396,0-2.792,0.382-4.444,1.271c-1.397,0.634-2.92,1.777-4.571,3.301l-2.159,1.904l0.38,16
				c0.382,17.144,0.889,26.794,1.525,29.206c0.38,1.144,1.269,2.287,2.792,3.176c1.651,1.016,3.684,1.523,6.096,1.523
				c3.81,0,5.715-0.762,5.715-2.285c0-0.254-0.128-0.635-0.382-1.017c-0.634-0.634-0.888-1.651-0.508-3.047
				c0.128-0.635,0.636-4.063,1.523-10.539c1.397-11.049,4.699-20.063,9.778-27.303l2.54-3.556l1.397,1.65
				c0.889,1.018,1.269,2.287,1.269,3.684c0,1.144,0.508,2.413,1.525,3.936c0.762,1.016,1.523,1.525,2.413,1.525
				c0.634,0,1.142,0,1.523-0.128c1.905-0.382,3.174-1.016,3.81-1.905c0.635-0.889,1.015-2.284,1.015-4.444
				C329.798,303.138,327.768,300.089,323.704,298.82z"/>
		</g>
	</g>
	<path fill="#65C8D0" d="M95.854,144.558l-15.038,1.874l-10.071-11.324l-2.864,14.881L54,156.066l13.268,7.321l1.491,15.083
		l11.063-10.357l14.804,3.243l-6.43-13.722L95.854,144.558z M81.948,161.227l-4.278-0.937l-3.197,2.993l-0.431-4.358l-3.833-2.115
		l4.012-1.757l0.828-4.3l2.909,3.272l4.347-0.541l-2.213,3.777L81.948,161.227z"/>
	<path fill="#65C8D0" d="M371.652,266.945l-15.038,1.874l-10.071-11.323l-2.864,14.88l-13.881,6.078l13.268,7.322l1.491,15.082
		l11.063-10.356l14.804,3.242l-6.43-13.722L371.652,266.945z M357.747,283.614l-4.278-0.937l-3.197,2.993l-0.431-4.358l-3.833-2.115
		l4.011-1.757l0.828-4.3l2.909,3.272l4.347-0.541l-2.213,3.777L357.747,283.614z"/>
	<path fill="#65C8D0" d="M95.949,274.455l-6.789,13.549l-15.009,2.091l10.787,10.643l-2.65,14.92l13.455-6.972l13.374,7.133
		l-2.474-14.951l10.915-10.514l-14.983-2.269L95.949,274.455z M102.094,295.275l-3.154,3.038l0.715,4.32l-3.864-2.061l-3.887,2.014
		l0.765-4.312l-3.117-3.075l4.337-0.604l1.962-3.916l1.914,3.938L102.094,295.275z"/>
	<path fill="#65C8D0" d="M362.145,119.438l-10.104,1.26l-6.767-7.608l-1.924,9.998l-9.326,4.083l8.914,4.92l1.002,10.134
		l7.433-6.959l9.946,2.179l-4.32-9.22L362.145,119.438z M352.801,130.638l-2.874-0.63l-2.148,2.011l-0.289-2.928l-2.576-1.421
		l2.695-1.181l0.556-2.889l1.955,2.198l2.921-0.363l-1.487,2.538L352.801,130.638z"/>
	<path fill="#CB7B26" d="M100.564,216.489l-10.104,1.259l-6.766-7.607l-1.925,9.998l-9.326,4.083l8.914,4.919l1.002,10.135
		l7.433-6.959l9.946,2.179l-4.32-9.22L100.564,216.489z M91.222,227.688l-2.875-0.629L86.2,229.07l-0.29-2.928l-2.576-1.421
		l2.695-1.182l0.556-2.888l1.955,2.198l2.92-0.363l-1.487,2.537L91.222,227.688z"/>
	<path fill="#CB7B26" d="M378,175.772l-15.038,1.874l-10.071-11.323l-2.864,14.881l-13.881,6.077l13.268,7.322l1.491,15.082
		l11.063-10.356l14.804,3.242l-6.43-13.722L378,175.772z M364.094,192.441l-4.278-0.937l-3.197,2.993l-0.431-4.358l-3.833-2.114
		l4.011-1.758l0.828-4.3l2.909,3.272l4.347-0.541l-2.213,3.777L364.094,192.441z"/>
</g>
</svg>
